<?xml version="1.0" encoding="utf-8"?>
<!-- Generator: Adobe Illustrator 27.5.0, SVG Export Plug-In . SVG Version: 6.00 Build 0)  -->
<svg version="1.1" xmlns="http://www.w3.org/2000/svg" xmlns:xlink="http://www.w3.org/1999/xlink" x="0px" y="0px"
	 viewBox="0 0 3710 3710" style="enable-background:new 0 0 3710 3710;" xml:space="preserve">
<g id="Background">
	<g>
		<g>
			<rect style="fill:#FFFFFF;" width="3710" height="3710"/>
		</g>
	</g>
</g>
<g id="Illustration">
	<g>
		<linearGradient id="SVGID_1_" gradientUnits="userSpaceOnUse" x1="3496.2283" y1="3660.2432" x2="1543.2484" y2="1581.2653">
			<stop  offset="0" style="stop-color:#DAE3FE"/>
			<stop  offset="1" style="stop-color:#E9EFFD"/>
		</linearGradient>
		<path style="fill:url(#SVGID_1_);" d="M2923.074,2814.402c-73.02,73.474-138.356,116.664-188.379,149.269
			c-487.867,317.993-1045.553,226.34-1217.976,195.013c-278.183-50.542-513.007-86.198-714.763-264.134
			c-458.451-404.325-436.153-1247.778-85.84-1770.261c41.536-61.951,391.319-568.086,950.212-639.404
			c13.67-1.744,23.869-2.738,32.802-3.661c86.459-8.936,622.231-56.099,1059.1,301.191
			c62.536,51.144,163.174,143.395,256.497,284.093C3355.962,1580.963,3357.043,2377.74,2923.074,2814.402z"/>
		<g>
			<g>
				<path style="fill:#BDD0FB;" d="M553.297,829.808c4.168-17.413,28.964-17.664,33.409-0.32
					c42.969,167.683,169.413,603.846,373.884,838.415c332.926,381.931,546.349,994.698,320.519,1304.447
					C1281.108,2972.351,99.125,2727.041,553.297,829.808z"/>
				<path style="opacity:0.43;fill:#FFFFFF;" d="M580.786,1068.305c0.299,5.456,0.979,9.934,1.499,14.782l1.844,14.259l4,28.447
					c2.795,18.94,5.88,37.831,8.966,56.722c6.307,37.757,13.083,75.433,20.206,113.048c14.383,75.201,30.8,150.003,48.339,224.542
					c17.436,74.571,36.957,148.654,58.039,222.292c21.146,73.616,43.342,146.963,67.939,219.54
					c48.901,145.222,105.747,287.924,172.447,426.035c34.07,68.689,69.953,136.526,109.696,202.135
					c40.198,65.299,83.196,128.922,130.637,189.125c1.031,1.309,2.929,1.534,4.238,0.502c1.277-1.006,1.522-2.836,0.578-4.14
					l-0.025-0.033c-44.905-61.774-86.409-125.849-124.682-191.823c-38.462-65.877-73.057-133.93-105.831-202.781
					c-32.745-68.89-62.708-139.087-91.069-209.909c-28.338-70.852-53.729-142.841-78.709-214.952
					c-49.357-144.477-90.978-291.533-128.524-439.584c-18.617-74.075-35.742-148.533-51.542-223.277
					c-7.96-37.36-15.577-74.796-22.729-112.322l-10.284-56.363l-4.852-28.222l-2.267-14.122c-0.668-4.637-1.464-9.612-1.881-13.694
					l-0.069-0.674c-0.168-1.644-1.636-2.841-3.28-2.673C581.875,1065.328,580.702,1066.721,580.786,1068.305z"/>
			</g>
			<g>
				<path style="fill:#91B3FA;" d="M1041.937,464.547c7.201-15.543,30.505-11.092,31.395,6.016
					c8.603,165.394,44.748,598.376,192.182,857.031c240.057,421.149,324.397,1036.212,54.037,1284.038
					C1319.55,2611.632,257.33,2158.123,1041.937,464.547z"/>
				<path style="opacity:0.43;fill:#FFFFFF;" d="M1022.584,693.419c-0.754,5.185-0.963,9.508-1.394,14.154l-0.969,13.724
					l-1.634,27.437c-0.964,18.294-1.645,36.594-2.325,54.896c-1.229,36.606-2.004,73.224-2.442,109.85
					c-0.739,73.253,0.513,146.515,2.862,219.744c2.245,73.238,6.546,146.414,12.398,219.467
					c5.914,73.044,12.864,146.035,22.212,218.759c18.411,145.454,44.765,290.045,81.227,432.194
					c18.982,70.865,39.825,141.273,64.709,210.321c25.377,68.842,53.691,136.64,86.831,202.063c0.734,1.449,2.503,2.028,3.952,1.294
					c1.413-0.715,1.999-2.415,1.348-3.842l-0.017-0.037c-30.415-66.436-57.215-134.379-80.623-203.494
					c-23.608-69.058-43.181-139.424-60.893-210.194c-17.68-70.801-32.512-142.3-45.719-214.083
					c-13.183-71.807-23.38-144.124-33.183-216.476c-18.991-144.829-30.223-290.618-37.474-436.569
					c-3.469-72.991-5.462-146.063-6.166-219.151c-0.411-36.544-0.487-73.095-0.108-109.642l0.997-54.806l0.777-27.387l0.539-13.674
					c0.249-4.474,0.442-9.295,0.819-13.189l0.064-0.658c0.155-1.602-1.017-3.028-2.62-3.182
					C1024.196,690.787,1022.808,691.892,1022.584,693.419z"/>
			</g>
		</g>
		<g>
			<g>
				<g>
					
						<linearGradient id="SVGID_00000120528468750059500550000017704818724205194664_" gradientUnits="userSpaceOnUse" x1="1175.1697" y1="-6.5109" x2="2996.394" y2="4405.3779">
						<stop  offset="0" style="stop-color:#09005D"/>
						<stop  offset="1" style="stop-color:#1A0F91"/>
					</linearGradient>
					<path style="fill:url(#SVGID_00000120528468750059500550000017704818724205194664_);" d="M2707.458,3221.513H1169.661
						c-16.154,0-29.249-13.095-29.249-29.249V493.316c0-16.154,13.095-29.249,29.249-29.249h1537.797
						c16.154,0,29.249,13.095,29.249,29.249v2698.948C2736.707,3208.418,2723.612,3221.513,2707.458,3221.513z"/>
					
						<linearGradient id="SVGID_00000010278380133717247830000006476245841027895969_" gradientUnits="userSpaceOnUse" x1="758.829" y1="749.7119" x2="2655.9807" y2="2508.6968">
						<stop  offset="0" style="stop-color:#4F52FF"/>
						<stop  offset="1" style="stop-color:#4042E2"/>
					</linearGradient>
					<path style="fill:url(#SVGID_00000010278380133717247830000006476245841027895969_);" d="M2634.389,3137.204H1242.65
						c-16.153,0-29.249-13.095-29.249-29.249V579.02c0-16.154,13.095-29.249,29.249-29.249h1391.739
						c16.153,0,29.248,13.095,29.248,29.249v2528.935C2663.637,3124.108,2650.542,3137.204,2634.389,3137.204z"/>
				</g>
				<path style="fill:#91B3FA;" d="M2617.315,3079.592H1257.867c-16.154,0-29.249-13.095-29.249-29.249V650.591
					c0-16.154,13.095-29.249,29.249-29.249h1359.448c16.153,0,29.249,13.095,29.249,29.249v2399.752
					C2646.564,3066.497,2633.469,3079.592,2617.315,3079.592z"/>
				
					<linearGradient id="SVGID_00000121267672777521192650000005576659404718658949_" gradientUnits="userSpaceOnUse" x1="2001.2087" y1="-487.3101" x2="1913.2826" y2="1264.4746">
					<stop  offset="0" style="stop-color:#4F52FF"/>
					<stop  offset="1" style="stop-color:#4042E2"/>
				</linearGradient>
				<path style="fill:url(#SVGID_00000121267672777521192650000005576659404718658949_);" d="M2663.637,867.112l-1.23-214.241
					c0-56.664-45.934-101.982-102.597-101.982H1316.298c-56.663,0-102.597,45.319-102.597,101.982l-0.3,209.287L2663.637,867.112z"
					/>
			</g>
			<g>
				<g>
					
						<linearGradient id="SVGID_00000175290724153710524020000002905029483078609825_" gradientUnits="userSpaceOnUse" x1="2803.8459" y1="-585.3886" x2="2492.7178" y2="490.0319">
						<stop  offset="0" style="stop-color:#FF928E"/>
						<stop  offset="1" style="stop-color:#FE7062"/>
					</linearGradient>
					<path style="fill:url(#SVGID_00000175290724153710524020000002905029483078609825_);" d="M2490.403,1541.823
						c0.162-1.767,0.319-3.535,0.462-5.307c21.592-267.822-180.395-502.63-451.15-524.459l-39.523,490.245L2490.403,1541.823z"/>
					<path style="fill:#7D97F4;" d="M1999.424,1500.097l391.754,297.48c53.751-70.646,89.044-156.7,97.937-251.589
						c0.28-2.989,0.523-5.972,0.748-8.953L1999.424,1500.097z"/>
					
						<linearGradient id="SVGID_00000085956685071491779370000014923040841136901278_" gradientUnits="userSpaceOnUse" x1="2328.3994" y1="-722.9412" x2="2017.2708" y2="352.4808">
						<stop  offset="0" style="stop-color:#E1473D"/>
						<stop  offset="1" style="stop-color:#E9605A"/>
					</linearGradient>
					<path style="fill:url(#SVGID_00000085956685071491779370000014923040841136901278_);" d="M1955.26,1445.518l55.859-482.604
						c-225.186-26.064-432.391,104.353-512.957,305.051l453.542,179.681C1953.3,1448.278,1955.062,1447.224,1955.26,1445.518z"/>
					
						<linearGradient id="SVGID_00000170266611071060268980000004752547457136887218_" gradientUnits="userSpaceOnUse" x1="2145.6519" y1="852.348" x2="1976.5602" y2="1126.2764">
						<stop  offset="0" style="stop-color:#4F52FF"/>
						<stop  offset="1" style="stop-color:#4042E2"/>
					</linearGradient>
					<path style="fill:url(#SVGID_00000170266611071060268980000004752547457136887218_);" d="M2001.116,1500.441l-460.927-169.276
						c-15.468,40.169-23.088,75.6-27.594,120.5c-21.019,209.464,92.664,401.367,270.686,489.757L2001.116,1500.441z"/>
					
						<linearGradient id="SVGID_00000103243671318858615110000002888408897822061970_" gradientUnits="userSpaceOnUse" x1="1999.1238" y1="2143.9285" x2="1877.3777" y2="2529.4573">
						<stop  offset="0" style="stop-color:#4F52FF"/>
						<stop  offset="1" style="stop-color:#4042E2"/>
					</linearGradient>
					<path style="fill:url(#SVGID_00000103243671318858615110000002888408897822061970_);" d="M2001.221,1503.089l0.05-0.396
						l-0.159,0.314l-0.927-0.705l-0.425,3.373l-220.864,435.857c48.98,24.83,102.939,41.791,160.403,49.068l0.032-0.254
						c2.86,0.357,5.725,0.702,8.602,1.009c177.606,18.977,343.212-59.09,444.011-191.572L2001.221,1503.089z"/>
				</g>
				<path style="fill:#91B3FA;" d="M1696.396,1870.101c-1.562,0-3.131-0.538-4.406-1.635
					c-115.94-99.718-177.83-250.133-165.555-402.359c0.552-6.843,1.255-13.762,2.094-20.565c0.462-3.709,3.857-6.315,7.543-5.885
					c3.709,0.459,6.341,3.834,5.885,7.543c-0.819,6.615-1.503,13.342-2.041,19.994c-11.926,147.932,48.221,294.107,160.891,391.014
					c2.834,2.437,3.154,6.708,0.72,9.538C1700.19,1869.301,1698.298,1870.101,1696.396,1870.101z"/>
				<path style="fill:#91B3FA;" d="M2032.908,1983.362c-3.554,0-6.533-2.771-6.744-6.364c-0.221-3.729,2.622-6.932,6.351-7.15
					c129.5-7.662,251.022-70.028,333.408-171.106c2.361-2.896,6.622-3.319,9.515-0.971c2.896,2.361,3.329,6.622,0.968,9.518
					c-84.767,104.005-209.819,168.177-343.091,176.06C2033.179,1983.359,2033.043,1983.362,2032.908,1983.362z"/>
				<path style="opacity:0.7;fill:#FFFFFF;" d="M2452.153,1359.315c-2.817,0-5.446-1.773-6.404-4.587
					c-31.143-91.534-89.027-170.073-167.387-227.124c-3.022-2.199-3.686-6.43-1.489-9.449c2.196-3.022,6.433-3.692,9.448-1.49
					c80.629,58.703,140.188,139.517,172.236,233.703c1.202,3.537-0.69,7.378-4.224,8.583
					C2453.609,1359.196,2452.876,1359.315,2452.153,1359.315z"/>
				<path style="opacity:0.7;fill:#FFFFFF;" d="M1753.761,1353.242c-0.842,0-1.698-0.158-2.526-0.492l-235.784-95.038l3.369-6.585
					c19.627-38.383,42.871-74.13,73.145-112.502c2.315-2.936,6.572-3.425,9.501-1.12c2.933,2.315,3.431,6.569,1.12,9.501
					c-27.979,35.456-49.819,68.594-68.314,103.707l222.022,89.487c3.464,1.397,5.139,5.34,3.745,8.805
					C1758.976,1351.64,1756.44,1353.242,1753.761,1353.242z"/>
				<path style="opacity:0.7;fill:#FFFFFF;" d="M1936.552,1426.75c-1.106,0-2.223-0.211-3.293-0.644l-47.362-19.102
					c-3.464-1.397-5.139-5.337-3.742-8.801c1.394-3.464,5.334-5.145,8.801-3.742l41.523,16.744l26.939-247.729
					c0.406-3.719,3.795-6.371,7.454-5.994c3.715,0.403,6.397,3.742,5.994,7.454l-27.623,254.001
					c-0.307,2.764-1.843,5.152-4.217,6.572C1939.643,1426.334,1938.104,1426.75,1936.552,1426.75z"/>
			</g>
			<g>
				
					<ellipse transform="matrix(0.7071 -0.7071 0.7071 0.7071 276.7685 1995.6752)" style="fill:#FFFFFF;" cx="2547.377" cy="663.748" rx="85.643" ry="85.643"/>
				<path style="fill:#91B3FA;" d="M2573.598,631.387c0,14.502-11.756,30.157-26.258,30.157s-26.257-15.656-26.257-30.157
					c0-14.502,11.756-24.79,26.257-24.79S2573.598,616.885,2573.598,631.387z"/>
				<path style="fill:#91B3FA;" d="M2514.755,717.376h64.099c6.747,0,12.721-4.361,14.777-10.787l3.449-10.781
					c2.525-7.893-1.581-16.439-9.364-19.285c-26.086-9.538-53.06-8.314-80.691,0.88c-7.741,2.576-12.036,10.856-9.9,18.729
					l2.656,9.791C2501.615,712.683,2507.751,717.376,2514.755,717.376z"/>
			</g>
			<g>
				<path style="fill:#FFFFFF;" d="M2053.113,2507.596h-731.437c-29.112,0-52.795-23.686-52.795-52.798v-335.462
					c0-29.112,23.683-52.795,52.795-52.795h731.437c29.112,0,52.795,23.683,52.795,52.795v335.462
					C2105.908,2483.91,2082.225,2507.596,2053.113,2507.596z M1321.676,2076.686c-23.518,0-42.649,19.132-42.649,42.649v335.462
					c0,23.518,19.132,42.653,42.649,42.653h731.437c23.518,0,42.649-19.135,42.649-42.653v-335.462
					c0-23.518-19.132-42.649-42.649-42.649H1321.676z"/>
				<g>
					
						<linearGradient id="SVGID_00000031928056876727622920000004893687411656086430_" gradientUnits="userSpaceOnUse" x1="1710.7998" y1="2192.9983" x2="1341.1335" y2="2333.668">
						<stop  offset="0" style="stop-color:#FF928E"/>
						<stop  offset="1" style="stop-color:#FE7062"/>
					</linearGradient>
					<path style="fill:url(#SVGID_00000031928056876727622920000004893687411656086430_);" d="M1459.733,2274.974
						c0-8.98-7.28-16.26-16.26-16.26h-112.899c-8.98,0-16.26,7.28-16.26,16.26v82.462c0,8.98,7.28,16.26,16.26,16.26h112.899
						c8.98,0,16.26-7.28,16.26-16.26V2274.974z"/>
					<g>
						<path style="opacity:0.8;fill:#FFFFFF;" d="M1390.541,2333.114h-30.707c-4.587,0-8.319-3.732-8.319-8.319v-23.944
							c0-4.587,3.732-8.319,8.319-8.319h30.707c4.587,0,8.319,3.732,8.319,8.319v23.944
							C1398.861,2329.382,1395.129,2333.114,1390.541,2333.114z M1359.834,2299.296c-0.859,0-1.556,0.697-1.556,1.556v23.944
							c0,0.859,0.697,1.555,1.556,1.555h30.707c0.859,0,1.556-0.697,1.556-1.555v-23.944c0-0.859-0.697-1.556-1.556-1.556H1359.834z
							"/>
						<g>
							<path style="fill:#FFFFFF;" d="M1354.897,2309.441h-40.582c-1.869,0-3.382-1.512-3.382-3.382
								c0-1.869,1.513-3.382,3.382-3.382h40.582c1.869,0,3.382,1.513,3.382,3.382
								C1358.279,2307.929,1356.766,2309.441,1354.897,2309.441z"/>
							<path style="fill:#FFFFFF;" d="M1354.897,2322.969h-40.582c-1.869,0-3.382-1.512-3.382-3.382
								c0-1.869,1.513-3.382,3.382-3.382h40.582c1.869,0,3.382,1.513,3.382,3.382
								C1358.279,2321.456,1356.766,2322.969,1354.897,2322.969z"/>
						</g>
						<g>
							<path style="fill:#FFFFFF;" d="M1452.97,2309.441h-50.727c-1.869,0-3.382-1.512-3.382-3.382c0-1.869,1.513-3.382,3.382-3.382
								h50.727c1.869,0,3.382,1.513,3.382,3.382C1456.352,2307.929,1454.839,2309.441,1452.97,2309.441z"/>
							<path style="fill:#FFFFFF;" d="M1452.97,2322.969h-50.727c-1.869,0-3.382-1.512-3.382-3.382c0-1.869,1.513-3.382,3.382-3.382
								h50.727c1.869,0,3.382,1.513,3.382,3.382C1456.352,2321.456,1454.839,2322.969,1452.97,2322.969z"/>
						</g>
						<g>
							<g>
								<path style="fill:#FFFFFF;" d="M1366.888,2301.522c-1.532,0-2.92-1.047-3.286-2.603l-9.568-40.404
									c-0.433-1.816,0.693-3.639,2.51-4.069c1.807-0.439,3.64,0.694,4.069,2.51l9.568,40.404c0.432,1.816-0.694,3.639-2.51,4.069
									C1367.41,2301.492,1367.146,2301.522,1366.888,2301.522z"/>
								<path style="fill:#FFFFFF;" d="M1392.767,2301.522c-0.268,0-0.538-0.03-0.809-0.099c-1.813-0.443-2.923-2.276-2.477-4.089
									l9.924-40.404c0.446-1.813,2.282-2.939,4.089-2.477c1.813,0.443,2.923,2.275,2.477,4.089l-9.924,40.404
									C1395.67,2300.488,1394.286,2301.522,1392.767,2301.522z"/>
							</g>
							<g>
								<path style="fill:#FFFFFF;" d="M1357.328,2377.012c-0.258,0-0.522-0.03-0.783-0.092c-1.816-0.429-2.943-2.252-2.51-4.069
									l9.568-40.404c0.426-1.817,2.256-2.953,4.069-2.51c1.816,0.429,2.943,2.252,2.51,4.069l-9.568,40.404
									C1360.247,2375.965,1358.86,2377.012,1357.328,2377.012z"/>
								<path style="fill:#FFFFFF;" d="M1402.685,2377.012c-1.519,0-2.903-1.034-3.28-2.576l-9.924-40.404
									c-0.446-1.813,0.664-3.646,2.477-4.089c1.816-0.462,3.646,0.664,4.089,2.477l9.924,40.404
									c0.446,1.813-0.664,3.646-2.477,4.089C1403.223,2376.982,1402.953,2377.012,1402.685,2377.012z"/>
							</g>
						</g>
					</g>
				</g>
				<path style="opacity:0.6;fill:#FFFFFF;" d="M1459.733,2154.875c0,10.655-8.638,19.293-19.293,19.293h-123.742
					c-10.655,0-19.293-8.638-19.293-19.293v-1.997c0-10.655,8.638-19.293,19.293-19.293h123.742
					c10.655,0,19.293,8.638,19.293,19.293V2154.875z"/>
				<g style="opacity:0.6;">
					<path style="fill:#FFFFFF;" d="M1466.497,2438.121c0,9.245-7.495,16.74-16.74,16.74h-135.612c-9.245,0-16.74-7.495-16.74-16.74
						v-0.339c0-9.245,7.495-16.74,16.74-16.74h135.612c9.245,0,16.74,7.495,16.74,16.74V2438.121z"/>
					<path style="fill:#FFFFFF;" d="M1655.88,2438.121c0,9.245-7.495,16.74-16.74,16.74h-135.612c-9.245,0-16.74-7.495-16.74-16.74
						v-0.339c0-9.245,7.495-16.74,16.74-16.74h135.612c9.245,0,16.74,7.495,16.74,16.74V2438.121z"/>
					<path style="fill:#FFFFFF;" d="M1852.026,2438.121c0,9.245-7.495,16.74-16.74,16.74h-135.612c-9.245,0-16.74-7.495-16.74-16.74
						v-0.339c0-9.245,7.495-16.74,16.74-16.74h135.612c9.245,0,16.74,7.495,16.74,16.74V2438.121z"/>
					<path style="fill:#FFFFFF;" d="M2051.554,2438.121c0,9.245-7.495,16.74-16.74,16.74h-135.612c-9.245,0-16.74-7.495-16.74-16.74
						v-0.339c0-9.245,7.495-16.74,16.74-16.74h135.612c9.245,0,16.74,7.495,16.74,16.74V2438.121z"/>
				</g>
			</g>
			<g>
				<path style="fill:#FFFFFF;" d="M2049.467,3028.751h-731.433c-29.112,0-52.798-23.686-52.798-52.798v-335.462
					c0-29.112,23.686-52.795,52.798-52.795h731.433c29.112,0,52.798,23.683,52.798,52.795v335.462
					C2102.265,3005.065,2078.579,3028.751,2049.467,3028.751z M1318.033,2597.842c-23.518,0-42.653,19.132-42.653,42.649v335.462
					c0,23.518,19.135,42.653,42.653,42.653h731.433c23.518,0,42.653-19.135,42.653-42.653v-335.462
					c0-23.518-19.135-42.649-42.653-42.649H1318.033z"/>
				<g>
					
						<linearGradient id="SVGID_00000182499776011513962450000004786705732695682178_" gradientUnits="userSpaceOnUse" x1="1707.4182" y1="2713.8003" x2="1337.7517" y2="2854.47">
						<stop  offset="0" style="stop-color:#FF928E"/>
						<stop  offset="1" style="stop-color:#FE7062"/>
					</linearGradient>
					<path style="fill:url(#SVGID_00000182499776011513962450000004786705732695682178_);" d="M1456.352,2795.776
						c0-8.98-7.28-16.26-16.26-16.26h-112.899c-8.98,0-16.26,7.28-16.26,16.26v82.463c0,8.98,7.28,16.26,16.26,16.26h112.899
						c8.98,0,16.26-7.28,16.26-16.26V2795.776z"/>
					<g>
						<path style="opacity:0.8;fill:#FFFFFF;" d="M1387.16,2857.298h-30.707c-4.587,0-8.319-3.732-8.319-8.319v-23.944
							c0-4.587,3.732-8.319,8.319-8.319h30.707c4.587,0,8.319,3.732,8.319,8.319v23.944
							C1395.479,2853.566,1391.747,2857.298,1387.16,2857.298z M1356.452,2823.48c-0.859,0-1.555,0.697-1.555,1.555v23.944
							c0,0.859,0.697,1.555,1.555,1.555h30.707c0.859,0,1.556-0.697,1.556-1.555v-23.944c0-0.859-0.697-1.555-1.556-1.555H1356.452z
							"/>
						<g>
							<path style="fill:#FFFFFF;" d="M1351.515,2830.243h-40.582c-1.869,0-3.382-1.512-3.382-3.382
								c0-1.869,1.513-3.382,3.382-3.382h40.582c1.869,0,3.382,1.512,3.382,3.382
								C1354.897,2828.731,1353.384,2830.243,1351.515,2830.243z"/>
							<path style="fill:#FFFFFF;" d="M1351.515,2840.389h-40.582c-1.869,0-3.382-1.512-3.382-3.382
								c0-1.869,1.513-3.382,3.382-3.382h40.582c1.869,0,3.382,1.512,3.382,3.382
								C1354.897,2838.876,1353.384,2840.389,1351.515,2840.389z"/>
						</g>
						<g>
							<path style="fill:#FFFFFF;" d="M1449.588,2830.243h-50.728c-1.869,0-3.382-1.512-3.382-3.382
								c0-1.869,1.513-3.382,3.382-3.382h50.728c1.869,0,3.382,1.512,3.382,3.382
								C1452.97,2828.731,1451.457,2830.243,1449.588,2830.243z"/>
							<path style="fill:#FFFFFF;" d="M1449.588,2840.389h-50.728c-1.869,0-3.382-1.512-3.382-3.382
								c0-1.869,1.513-3.382,3.382-3.382h50.728c1.869,0,3.382,1.512,3.382,3.382
								C1452.97,2838.876,1451.457,2840.389,1449.588,2840.389z"/>
						</g>
						<g>
							<g>
								<path style="fill:#FFFFFF;" d="M1363.246,2822.677c-1.532,0-2.92-1.047-3.286-2.603l-9.571-40.4
									c-0.433-1.816,0.693-3.639,2.51-4.069c1.807-0.436,3.639,0.694,4.069,2.51l9.571,40.4c0.433,1.816-0.693,3.639-2.51,4.069
									C1363.767,2822.648,1363.503,2822.677,1363.246,2822.677z"/>
								<path style="fill:#FFFFFF;" d="M1389.125,2822.677c-0.268,0-0.538-0.03-0.809-0.099c-1.813-0.443-2.923-2.276-2.477-4.089
									l9.921-40.4c0.443-1.813,2.289-2.936,4.089-2.477c1.813,0.443,2.923,2.276,2.477,4.089l-9.921,40.4
									C1392.028,2821.644,1390.644,2822.677,1389.125,2822.677z"/>
							</g>
							<g>
								<path style="fill:#FFFFFF;" d="M1353.681,2898.167c-0.258,0-0.522-0.03-0.783-0.093c-1.816-0.429-2.943-2.252-2.51-4.069
									l9.571-40.404c0.429-1.82,2.249-2.956,4.069-2.51c1.816,0.429,2.943,2.252,2.51,4.069l-9.571,40.404
									C1356.601,2897.121,1355.214,2898.167,1353.681,2898.167z"/>
								<path style="fill:#FFFFFF;" d="M1399.039,2898.167c-1.519,0-2.903-1.034-3.279-2.576l-9.921-40.404
									c-0.446-1.813,0.664-3.646,2.477-4.089c1.81-0.456,3.646,0.664,4.089,2.477l9.921,40.404
									c0.446,1.813-0.664,3.646-2.477,4.089C1399.577,2898.138,1399.306,2898.167,1399.039,2898.167z"/>
							</g>
						</g>
					</g>
				</g>
				<path style="opacity:0.6;fill:#FFFFFF;" d="M1452.97,2675.677c0,10.655-8.638,19.293-19.293,19.293h-123.743
					c-10.655,0-19.293-8.638-19.293-19.293v-1.997c0-10.655,8.638-19.293,19.293-19.293h123.743
					c10.655,0,19.293,8.638,19.293,19.293V2675.677z"/>
				<g style="opacity:0.6;">
					<path style="fill:#FFFFFF;" d="M1459.733,2958.923c0,9.245-7.495,16.74-16.74,16.74h-135.612c-9.245,0-16.74-7.495-16.74-16.74
						v-0.339c0-9.245,7.495-16.74,16.74-16.74h135.612c9.245,0,16.74,7.495,16.74,16.74V2958.923z"/>
					<path style="fill:#FFFFFF;" d="M1652.498,2958.923c0,9.245-7.495,16.74-16.74,16.74h-135.612c-9.245,0-16.74-7.495-16.74-16.74
						v-0.339c0-9.245,7.495-16.74,16.74-16.74h135.612c9.245,0,16.74,7.495,16.74,16.74V2958.923z"/>
					<path style="fill:#FFFFFF;" d="M1848.644,2958.923c0,9.245-7.495,16.74-16.74,16.74h-135.612c-9.245,0-16.74-7.495-16.74-16.74
						v-0.339c0-9.245,7.495-16.74,16.74-16.74h135.612c9.245,0,16.74,7.495,16.74,16.74V2958.923z"/>
					<path style="fill:#FFFFFF;" d="M2041.408,2958.923c0,9.245-7.495,16.74-16.74,16.74h-135.612c-9.245,0-16.74-7.495-16.74-16.74
						v-0.339c0-9.245,7.495-16.74,16.74-16.74h135.612c9.245,0,16.74,7.495,16.74,16.74V2958.923z"/>
				</g>
			</g>
			<g>
				<path style="opacity:0.49;fill:#FFFFFF;" d="M2592.81,2304.255h-418.495c-3.117,0-5.644-2.527-5.644-5.644v-135.627
					c0-3.117,2.527-5.644,5.644-5.644h418.495c3.117,0,5.644,2.527,5.644,5.644v135.627
					C2598.454,2301.728,2595.927,2304.255,2592.81,2304.255z"/>
				<path style="opacity:0.49;fill:#FFFFFF;" d="M2593.321,2410.585h-419.518c-2.834,0-5.132-2.298-5.132-5.132v-48.562
					c0-2.834,2.298-5.132,5.132-5.132h419.518c2.834,0,5.132,2.298,5.132,5.132v48.562
					C2598.454,2408.287,2596.156,2410.585,2593.321,2410.585z"/>
				<g>
					<path style="fill:#FFFFFF;" d="M2533.625,2159.414L2533.625,2159.414c2.479,0.236,4.486,2.468,4.486,4.985v8.593
						c4.957,0.554,9.922,1.416,14.894,2.584c3.666,0.861,7.307,1.887,10.923,3.076c2.167,0.712,3.644,2.9,3.423,5.157l-1.055,10.776
						c-0.28,2.859-3.106,4.538-5.767,3.352c-2.382-1.062-4.825-1.972-7.328-2.73c-4.368-1.322-8.975-2.183-13.822-2.583
						l-1.267-0.104v24.61c12.933,3.618,22.432,8.486,28.57,14.609c6.109,6.093,9.152,13.688,9.152,22.804
						c0,9.859-3.365,17.753-10.121,23.708c-6.793,5.986-16.316,9.352-28.631,10.081v9.485c0,2.519-2.008,4.481-4.49,4.383
						l-0.079-0.003c-2.487-0.099-4.506-2.228-4.506-4.756v-9.356l-1.999-0.09c-5.773-0.26-11.303-0.849-16.587-1.768
						c-3.913-0.681-7.734-1.559-11.462-2.636c-2.255-0.651-3.803-2.799-3.596-5.107l1.242-13.852
						c0.269-2.995,3.276-4.737,6.124-3.614c3.319,1.309,6.679,2.412,10.081,3.309c5.301,1.398,10.674,2.294,16.117,2.693
						l0.08-27.376c-12.415-3.072-21.709-7.622-27.816-13.648c-6.135-6.055-9.213-13.804-9.213-23.226
						c0-9.75,3.338-17.277,9.989-22.559c6.617-5.255,16.023-7.87,28.158-7.863v-8.785
						C2529.123,2161.034,2531.14,2159.177,2533.625,2159.414z M2529.123,2192.264c-3.837,0.279-6.829,1.333-8.97,3.163
						c-2.145,1.833-3.219,4.296-3.219,7.387c0,2.929,0.993,5.377,2.978,7.342c1.981,1.962,5.054,3.529,9.211,4.699V2192.264z
						 M2537.08,2241.836v25.104c4.171,0.008,7.369-0.987,9.602-2.984c2.229-1.994,3.342-4.81,3.342-8.451
						c0-3.32-1.034-6.073-3.106-8.262C2544.843,2245.05,2541.567,2243.248,2537.08,2241.836z"/>
				</g>
			</g>
			<g>
				<path style="opacity:0.49;fill:#FFFFFF;" d="M2585.209,2816.005h-418.495c-3.117,0-5.644-2.527-5.644-5.644v-135.627
					c0-3.117,2.527-5.644,5.644-5.644h418.495c3.117,0,5.644,2.527,5.644,5.644v135.627
					C2590.853,2813.479,2588.326,2816.005,2585.209,2816.005z"/>
				<path style="opacity:0.49;fill:#FFFFFF;" d="M2585.72,2922.335h-419.518c-2.834,0-5.132-2.298-5.132-5.132v-48.562
					c0-2.834,2.298-5.132,5.132-5.132h419.518c2.834,0,5.132,2.298,5.132,5.132v48.562
					C2590.853,2920.037,2588.555,2922.335,2585.72,2922.335z"/>
				<g>
					<path style="fill:#FFFFFF;" d="M2526.024,2671.164L2526.024,2671.164c2.479,0.236,4.486,2.468,4.486,4.985v8.594
						c4.958,0.553,9.922,1.415,14.894,2.583c3.666,0.862,7.307,1.887,10.923,3.076c2.167,0.712,3.643,2.9,3.422,5.157l-1.055,10.776
						c-0.28,2.859-3.106,4.538-5.767,3.352c-2.382-1.062-4.825-1.972-7.328-2.73c-4.368-1.322-8.974-2.183-13.822-2.583
						l-1.268-0.104v24.61c12.933,3.618,22.432,8.486,28.57,14.609c6.109,6.094,9.152,13.688,9.152,22.804
						c0,9.859-3.365,17.754-10.121,23.708c-6.793,5.986-16.316,9.352-28.631,10.081v9.485c0,2.519-2.008,4.481-4.49,4.383
						l-0.079-0.003c-2.486-0.099-4.506-2.228-4.506-4.756v-9.356l-1.999-0.09c-5.773-0.26-11.303-0.849-16.587-1.769
						c-3.913-0.681-7.734-1.559-11.462-2.636c-2.255-0.651-3.803-2.799-3.596-5.107l1.242-13.852
						c0.268-2.995,3.276-4.737,6.124-3.614c3.319,1.309,6.679,2.412,10.081,3.309c5.301,1.398,10.674,2.294,16.117,2.693
						l0.08-27.376c-12.415-3.072-21.709-7.622-27.816-13.648c-6.135-6.055-9.213-13.804-9.213-23.226
						c0-9.75,3.338-17.277,9.989-22.559c6.617-5.255,16.023-7.87,28.158-7.863v-8.785
						C2521.522,2672.784,2523.539,2670.928,2526.024,2671.164z M2521.522,2704.015c-3.837,0.279-6.829,1.333-8.97,3.163
						c-2.145,1.833-3.219,4.296-3.219,7.387c0,2.928,0.993,5.376,2.978,7.342c1.981,1.962,5.054,3.529,9.211,4.699V2704.015z
						 M2529.479,2753.586v25.104c4.171,0.008,7.369-0.988,9.602-2.985c2.229-1.994,3.342-4.81,3.342-8.45
						c0-3.32-1.034-6.073-3.105-8.263C2537.242,2756.8,2533.966,2754.998,2529.479,2753.586z"/>
				</g>
			</g>
			<g style="opacity:0.75;">
				<path style="fill:#91B3FA;" d="M2587.323,793.338h-79.893c-1.454,0-2.633-1.179-2.633-2.633v-13.204
					c0-1.454,1.179-2.633,2.633-2.633h79.893c1.454,0,2.633,1.179,2.633,2.633v13.204
					C2589.956,792.16,2588.778,793.338,2587.323,793.338z"/>
				<path style="fill:#91B3FA;" d="M2587.323,822.582h-79.893c-1.454,0-2.633-1.179-2.633-2.633v-13.204
					c0-1.454,1.179-2.633,2.633-2.633h79.893c1.454,0,2.633,1.179,2.633,2.633v13.204
					C2589.956,821.403,2588.778,822.582,2587.323,822.582z"/>
				<path style="fill:#91B3FA;" d="M2587.323,850.286h-79.893c-1.454,0-2.633-1.179-2.633-2.633v-13.204
					c0-1.454,1.179-2.633,2.633-2.633h79.893c1.454,0,2.633,1.179,2.633,2.633v13.204
					C2589.956,849.107,2588.778,850.286,2587.323,850.286z"/>
			</g>
			<path style="fill:#91B3FA;" d="M2440.714,827.539h-352.012c-2.623,0-4.75-2.127-4.75-4.75v-55.578c0-2.623,2.127-4.75,4.75-4.75
				h352.012c2.623,0,4.75,2.127,4.75,4.75v55.578C2445.464,825.412,2443.337,827.539,2440.714,827.539z"/>
			<path style="fill:#91B3FA;" d="M2014.308,824.512h-352.012c-2.623,0-4.75-2.127-4.75-4.75v-55.578c0-2.623,2.127-4.75,4.75-4.75
				h352.012c2.623,0,4.75,2.127,4.75,4.75v55.578C2019.058,822.385,2016.932,824.512,2014.308,824.512z"/>
			<path style="fill:#91B3FA;" d="M1586.913,821.485h-352.012c-2.623,0-4.75-2.127-4.75-4.75v-55.578c0-2.623,2.127-4.75,4.75-4.75
				h352.012c2.623,0,4.75,2.127,4.75,4.75v55.578C1591.663,819.359,1589.536,821.485,1586.913,821.485z"/>
			<g>
				
					<linearGradient id="SVGID_00000067208800159732845790000015980498425595591839_" gradientUnits="userSpaceOnUse" x1="1137.406" y1="1843.5638" x2="1170.6947" y2="1416.4266">
					<stop  offset="0" style="stop-color:#4F52FF"/>
					<stop  offset="1" style="stop-color:#4042E2"/>
				</linearGradient>
				<path style="fill:url(#SVGID_00000067208800159732845790000015980498425595591839_);" d="M1441.34,1822.425H866.76
					c-8.333,0-15.089-6.755-15.089-15.089v-354.681c0-8.333,6.756-15.089,15.089-15.089h574.58c8.333,0,15.089,6.755,15.089,15.089
					v354.681C1456.429,1815.669,1449.674,1822.425,1441.34,1822.425z"/>
				<path style="fill:#BDD0FB;" d="M1423.895,1809.739H887.867c-8.333,0-15.089-6.756-15.089-15.089v-330.148
					c0-8.333,6.755-15.089,15.089-15.089h536.028c8.333,0,15.089,6.756,15.089,15.089v330.148
					C1438.984,1802.984,1432.229,1809.739,1423.895,1809.739z"/>
				
					<linearGradient id="SVGID_00000096746893441273565170000005314962385132794806_" gradientUnits="userSpaceOnUse" x1="1157.0594" y1="1169.7646" x2="1157.0594" y2="2035.5156">
					<stop  offset="0" style="stop-color:#4F52FF"/>
					<stop  offset="1" style="stop-color:#4042E2"/>
				</linearGradient>
				<path style="fill:url(#SVGID_00000096746893441273565170000005314962385132794806_);" d="M1459.733,1521.475v-38.59
					c0-25.26-21.115-42.573-45.345-42.573H897.374c-24.229,0-42.988,17.313-42.988,42.573v38.59H1459.733z"/>
				<g>
					<path style="fill:#FFFFFF;" d="M1241.06,1552.475c0-4.679-3.422-8.553-8.216-8.681l-50.79-1.319
						c-4.851-0.129-10.895,3.562-10.895,8.275v47.573c0,4.713,6.278,8.646,11.128,8.741l49.386,0.947
						c4.794,0.094,9.387-3.625,9.387-8.304V1552.475z"/>
					<path style="fill:#FFFFFF;" d="M1329.781,1554.744c0-4.634-3.942-8.482-8.644-8.607l-47.503-1.239
						c-4.756-0.126-8.378,3.583-8.378,8.25v47.104c0,4.666,3.558,8.502,8.314,8.595l47.715,0.912
						c4.702,0.092,8.496-3.607,8.496-8.241V1554.744z"/>
					<path style="fill:#FFFFFF;" d="M1418.503,1557.028c0-4.588-4.089-8.407-8.698-8.529l-47.089-1.268
						c-4.662-0.124-8.738,3.497-8.738,8.117v46.637c0,4.62,3.899,8.464,8.562,8.555l47.206,0.927
						c4.609,0.09,8.758-3.541,8.758-8.129V1557.028z"/>
					<path style="fill:#FFFFFF;" d="M1241.06,1638.865c0-4.679-3.422-8.52-8.216-8.602l-50.79-0.855
						c-4.851-0.083-10.895,3.644-10.895,8.356v47.573c0,4.713,6.278,8.609,11.128,8.657l49.386,0.485
						c4.794,0.047,9.387-3.704,9.387-8.383V1638.865z"/>
					<path style="fill:#91B3FA;" d="M1329.781,1640.298c0-4.634-3.942-8.45-8.644-8.53l-47.503-0.788
						c-4.756-0.081-8.378,3.66-8.378,8.326v47.104c0,4.667,3.558,8.469,8.314,8.516l47.715,0.463
						c4.702,0.047,8.496-3.682,8.496-8.316V1640.298z"/>
					<path style="fill:#FFFFFF;" d="M1418.503,1641.733c0-4.588-4.089-8.374-8.698-8.453l-47.089-0.824
						c-4.662-0.079-8.738,3.574-8.738,8.194v46.637c0,4.62,3.899,8.43,8.562,8.476l47.206,0.483
						c4.609,0.046,8.758-3.617,8.758-8.204V1641.733z"/>
					<path style="fill:#FFFFFF;" d="M964.141,1634.482c0-4.823-4.483-8.831-9.577-8.918l-51.359-0.911
						c-5.157-0.088-8.965,3.75-8.965,8.609v49.051c0,4.859,3.626,8.857,8.783,8.908l51.82,0.546c5.094,0.05,9.299-3.784,9.299-8.606
						V1634.482z"/>
					<path style="fill:#FFFFFF;" d="M1058.24,1635.926c0-4.774-3.639-8.695-8.63-8.779l-51.403-0.875
						c-5.051-0.086-9.869,3.73-9.869,8.54v48.546c0,4.809,5.022,8.769,10.073,8.819l50.737,0.497
						c4.991,0.049,9.091-3.785,9.091-8.559V1635.926z"/>
					<path style="fill:#FFFFFF;" d="M1149.65,1637.494c0-4.726-3.715-8.66-8.608-8.743l-51.002-0.889
						c-4.951-0.084-10.292,3.663-10.292,8.424v48.063c0,4.761,5.465,8.687,10.416,8.736l50.155,0.54
						c4.892,0.048,9.33-3.695,9.33-8.422V1637.494z"/>
					<path style="fill:#FFFFFF;" d="M1241.06,1725.255c0-4.679-3.422-8.487-8.216-8.523l-50.79-0.392
						c-4.851-0.036-10.895,3.725-10.895,8.438v47.573c0,4.713,6.278,8.572,11.128,8.573l49.386,0.024
						c4.794,0.001,9.387-3.782,9.387-8.461V1725.255z"/>
					<path style="fill:#FFFFFF;" d="M1329.781,1725.853c0-4.634-3.942-8.419-8.644-8.454l-47.503-0.338
						c-4.756-0.035-8.378,3.736-8.378,8.402v47.104c0,4.666,3.558,8.436,8.314,8.437l47.715,0.012
						c4.702,0.002,8.496-3.757,8.496-8.39V1725.853z"/>
					<path style="fill:#FFFFFF;" d="M964.141,1723.521c0-4.823-4.483-8.787-9.577-8.825l-51.359-0.415
						c-5.157-0.038-8.965,3.84-8.965,8.699v49.051c0,4.859,3.626,8.819,8.783,8.82l51.82,0.047c5.094,0.002,9.299-3.876,9.299-8.698
						V1723.521z"/>
					<path style="fill:#FFFFFF;" d="M1058.24,1724.067c0-4.774-3.639-8.66-8.63-8.697l-51.403-0.39
						c-5.051-0.038-9.869,3.817-9.869,8.626v48.546c0,4.809,5.022,8.729,10.073,8.73l50.737,0.015
						c4.991,0.002,9.091-3.868,9.091-8.642V1724.067z"/>
					<path style="fill:#FFFFFF;" d="M1149.65,1724.758c0-4.726-3.715-8.623-8.608-8.66l-51.002-0.412
						c-4.951-0.037-10.292,3.75-10.292,8.511v48.063c0,4.761,5.465,8.646,10.416,8.648l50.155,0.065
						c4.892,0.002,9.33-3.78,9.33-8.506V1724.758z"/>
				</g>
			</g>
			<g>
				<g>
					
						<linearGradient id="SVGID_00000124842329254096156600000004959838113778566792_" gradientUnits="userSpaceOnUse" x1="1506.1217" y1="-960.8357" x2="1194.9932" y2="114.586">
						<stop  offset="0" style="stop-color:#FF928E"/>
						<stop  offset="1" style="stop-color:#FE7062"/>
					</linearGradient>
					
						<circle style="fill:url(#SVGID_00000124842329254096156600000004959838113778566792_);" cx="910.435" cy="1098.166" r="96.987"/>
					
						<linearGradient id="SVGID_00000045605349654682985490000000588010248771529913_" gradientUnits="userSpaceOnUse" x1="923.433" y1="1000.9899" x2="887.924" y2="1266.4637">
						<stop  offset="0" style="stop-color:#FF928E"/>
						<stop  offset="1" style="stop-color:#FE7062"/>
					</linearGradient>
					
						<circle style="fill:url(#SVGID_00000045605349654682985490000000588010248771529913_);" cx="910.435" cy="1098.166" r="93.763"/>
					<path style="opacity:0.7;fill:#FFFFFF;" d="M833.116,1062.859c-0.551,0-1.112-0.125-1.638-0.391
						c-1.796-0.905-2.516-3.096-1.609-4.892c15.443-30.596,46.313-49.604,80.565-49.604c5.471,0,10.943,0.493,16.267,1.462
						c1.979,0.361,3.292,2.257,2.931,4.236c-0.359,1.979-2.25,3.286-4.236,2.931c-4.894-0.893-9.928-1.345-14.962-1.345
						c-31.487,0-59.866,17.475-74.064,45.603C835.73,1062.128,834.448,1062.859,833.116,1062.859z"/>
					
						<ellipse transform="matrix(0.9434 -0.3315 0.3315 0.9434 -313.1575 364.7543)" style="opacity:0.78;fill:#FFFFFF;" cx="912.478" cy="1100.209" rx="79.359" ry="79.359"/>
					<g>
						
							<linearGradient id="SVGID_00000059996049790043146430000009152066777863525279_" gradientUnits="userSpaceOnUse" x1="1509.8075" y1="-959.7631" x2="1198.6788" y2="115.6587">
							<stop  offset="0" style="stop-color:#FF928E"/>
							<stop  offset="1" style="stop-color:#FE7062"/>
						</linearGradient>
						<path style="fill:url(#SVGID_00000059996049790043146430000009152066777863525279_);" d="M904.69,1159.205v-8.634
							c-9-0.36-17.903-2.485-24.226-5.253c-2.258-0.988-3.409-3.522-2.76-5.9l2.193-8.043c0.805-2.95,4.013-4.476,6.833-3.294
							c6.272,2.63,14.016,4.71,22.367,4.71c8.669,0,15.134-2.939,15.134-8.964c0-5.436-4.996-8.668-17.044-11.9
							c-17.191-4.702-29.534-12.196-29.534-27.33c0-13.665,9.992-24.098,27.33-26.889v-8.635c0-2.778,2.252-5.03,5.03-5.03h5.073
							c2.778,0,5.03,2.252,5.03,5.03v7.753c8.328,0.333,14.391,1.757,19.202,3.448c2.465,0.866,3.812,3.522,3.128,6.043
							l-2.017,7.438c-0.778,2.868-3.843,4.439-6.623,3.388c-4.43-1.675-10.692-3.419-18.833-3.419
							c-10.286,0-13.224,4.261-13.224,8.081c0,4.702,6.171,7.934,19.542,12.049c19.101,5.73,27.036,13.664,27.036,27.917
							c0,13.077-9.698,24.832-28.505,27.771v9.662c0,2.778-2.252,5.03-5.03,5.03h-5.073
							C906.943,1164.236,904.69,1161.984,904.69,1159.205z"/>
					</g>
				</g>
				<g>
					
						<linearGradient id="SVGID_00000098209492811742805030000007355853246890893972_" gradientUnits="userSpaceOnUse" x1="1730.1702" y1="-896.014" x2="1419.0411" y2="179.4094">
						<stop  offset="0" style="stop-color:#FF928E"/>
						<stop  offset="1" style="stop-color:#FE7062"/>
					</linearGradient>
					
						<circle style="fill:url(#SVGID_00000098209492811742805030000007355853246890893972_);" cx="1186.512" cy="983.15" r="168.839"/>
					
						<linearGradient id="SVGID_00000171710879405643628030000001687599960088879792_" gradientUnits="userSpaceOnUse" x1="1221.0919" y1="814.5085" x2="1111.1829" y2="1350.5278">
						<stop  offset="0" style="stop-color:#FF928E"/>
						<stop  offset="1" style="stop-color:#FE7062"/>
					</linearGradient>
					
						<circle style="fill:url(#SVGID_00000171710879405643628030000001687599960088879792_);" cx="1186.512" cy="983.15" r="163.224"/>
					<path style="opacity:0.7;fill:#FFFFFF;" d="M1051.916,918.989c-0.551,0-1.112-0.125-1.638-0.391
						c-1.796-0.905-2.516-3.096-1.609-4.892c26.425-52.351,79.244-84.871,137.844-84.871c9.346,0,18.713,0.843,27.835,2.504
						c1.979,0.361,3.292,2.256,2.931,4.235c-0.359,1.978-2.25,3.279-4.236,2.931c-8.694-1.584-17.619-2.386-26.53-2.386
						c-55.837,0-106.163,30.987-131.342,80.871C1054.53,918.258,1053.248,918.989,1051.916,918.989z"/>
					<circle style="opacity:0.78;fill:#FFFFFF;" cx="1190.069" cy="986.706" r="138.15"/>
					<g>
						
							<linearGradient id="SVGID_00000174581070597545905050000002910333829668283266_" gradientUnits="userSpaceOnUse" x1="1736.5895" y1="-894.1567" x2="1425.4606" y2="181.2663">
							<stop  offset="0" style="stop-color:#FF928E"/>
							<stop  offset="1" style="stop-color:#FE7062"/>
						</linearGradient>
						<path style="fill:url(#SVGID_00000174581070597545905050000002910333829668283266_);" d="M1176.512,1089.408v-15.03
							c-15.668-0.627-31.166-4.325-42.173-9.144c-3.931-1.72-5.934-6.131-4.805-10.271l3.818-14
							c1.401-5.136,6.986-7.792,11.896-5.734c10.918,4.577,24.401,8.198,38.938,8.198c15.091,0,26.346-5.117,26.346-15.604
							c0-9.464-8.696-15.09-29.671-20.717c-29.926-8.185-51.413-21.231-51.413-47.576c0-23.789,17.394-41.95,47.576-46.809v-15.031
							c0-4.837,3.921-8.758,8.758-8.758h8.831c4.837,0,8.758,3.921,8.758,8.758v13.495c14.498,0.58,25.052,3.06,33.427,6.003
							c4.291,1.507,6.636,6.13,5.446,10.52l-3.511,12.948c-1.354,4.993-6.69,7.728-11.529,5.898
							c-7.711-2.916-18.613-5.953-32.785-5.953c-17.905,0-23.02,7.417-23.02,14.068c0,8.185,10.743,13.812,34.018,20.975
							c33.253,9.975,47.064,23.787,47.064,48.599c0,22.765-16.881,43.228-49.622,48.344v16.82c0,4.837-3.921,8.758-8.757,8.758
							h-8.832C1180.433,1098.166,1176.512,1094.246,1176.512,1089.408z"/>
					</g>
				</g>
				<g>
					
						<linearGradient id="SVGID_00000147921814641757335170000001578946369577883043_" gradientUnits="userSpaceOnUse" x1="1696.8682" y1="998.1142" x2="1592.0314" y2="1094.4963">
						<stop  offset="0" style="stop-color:#FF928E"/>
						<stop  offset="1" style="stop-color:#FE7062"/>
					</linearGradient>
					
						<circle style="fill:url(#SVGID_00000147921814641757335170000001578946369577883043_);" cx="1302.954" cy="1360.26" r="173.733"/>
					
						<linearGradient id="SVGID_00000011024636149339049940000013943900653963728797_" gradientUnits="userSpaceOnUse" x1="1344.2236" y1="1192.5205" x2="1239.3866" y2="1618.6306">
						<stop  offset="0" style="stop-color:#FF928E"/>
						<stop  offset="1" style="stop-color:#FE7062"/>
					</linearGradient>
					
						<circle style="fill:url(#SVGID_00000011024636149339049940000013943900653963728797_);" cx="1302.954" cy="1360.26" r="167.956"/>
					<path style="opacity:0.7;fill:#FFFFFF;" d="M1164.456,1294.133c-0.551,0-1.111-0.125-1.638-0.391
						c-1.796-0.905-2.516-3.096-1.609-4.892c27.173-53.831,81.486-87.273,141.745-87.273c9.617,0,19.246,0.866,28.624,2.573
						c1.979,0.361,3.29,2.256,2.931,4.236c-0.359,1.977-2.246,3.282-4.236,2.931c-8.948-1.629-18.14-2.456-27.319-2.456
						c-57.494,0-109.316,31.907-135.244,83.272C1167.069,1293.402,1165.787,1294.133,1164.456,1294.133z"/>
					
						<ellipse transform="matrix(0.7071 -0.7071 0.7071 0.7071 -581.7389 1323.3983)" style="opacity:0.78;fill:#FFFFFF;" cx="1306.614" cy="1363.92" rx="142.154" ry="142.154"/>
					<g>
						
							<linearGradient id="SVGID_00000095310870877879891510000010308934897112273568_" gradientUnits="userSpaceOnUse" x1="1944.8986" y1="-833.8907" x2="1633.77" y2="241.5311">
							<stop  offset="0" style="stop-color:#FF928E"/>
							<stop  offset="1" style="stop-color:#FE7062"/>
						</linearGradient>
						<path style="fill:url(#SVGID_00000095310870877879891510000010308934897112273568_);" d="M1292.664,1469.6v-15.466
							c-16.122-0.646-32.069-4.451-43.395-9.409c-4.044-1.771-6.106-6.31-4.944-10.569l3.929-14.406
							c1.441-5.285,7.189-8.018,12.24-5.901c11.236,4.71,25.108,8.436,40.067,8.436c15.529,0,27.109-5.265,27.109-16.057
							c0-9.737-8.948-15.528-30.531-21.317c-30.794-8.422-52.904-21.846-52.904-48.956c0-24.479,17.899-43.166,48.956-48.165
							v-15.467c0-4.977,4.034-9.011,9.011-9.011h9.087c4.977,0,9.011,4.035,9.011,9.011v13.887
							c14.919,0.597,25.778,3.148,34.397,6.177c4.415,1.551,6.828,6.308,5.603,10.825l-3.613,13.323
							c-1.393,5.138-6.884,7.952-11.863,6.07c-7.935-3.001-19.153-6.125-33.735-6.125c-18.425,0-23.688,7.632-23.688,14.476
							c0,8.422,11.054,14.212,35.005,21.583c34.216,10.265,48.428,24.477,48.428,50.008c0,23.425-17.37,44.481-51.06,49.746v17.308
							c0,4.977-4.035,9.011-9.011,9.011h-9.088C1296.698,1478.611,1292.664,1474.576,1292.664,1469.6z"/>
					</g>
				</g>
				<g>
					
						<linearGradient id="SVGID_00000173861484005737278240000000470733240293030843_" gradientUnits="userSpaceOnUse" x1="2080.7766" y1="-794.5801" x2="1769.6481" y2="280.8413">
						<stop  offset="0" style="stop-color:#FF928E"/>
						<stop  offset="1" style="stop-color:#FE7062"/>
					</linearGradient>
					
						<circle style="fill:url(#SVGID_00000173861484005737278240000000470733240293030843_);" cx="1525.83" cy="1123.602" r="127.293"/>
					
						<linearGradient id="SVGID_00000128443245277176739480000015232316618863432332_" gradientUnits="userSpaceOnUse" x1="1538.0133" y1="1051.9371" x2="1480.5223" y2="1390.1208">
						<stop  offset="0" style="stop-color:#FF928E"/>
						<stop  offset="1" style="stop-color:#FE7062"/>
					</linearGradient>
					
						<circle style="fill:url(#SVGID_00000128443245277176739480000015232316618863432332_);" cx="1525.83" cy="1123.602" r="123.06"/>
					<path style="opacity:0.7;fill:#FFFFFF;" d="M1424.354,1076.125c-0.551,0-1.111-0.125-1.638-0.391
						c-1.796-0.905-2.516-3.096-1.609-4.892c20.074-39.772,60.202-64.479,104.724-64.479c7.109,0,14.224,0.64,21.148,1.903
						c1.978,0.361,3.29,2.258,2.929,4.236c-0.363,1.981-2.242,3.292-4.238,2.931c-6.492-1.184-13.168-1.786-19.84-1.786
						c-41.757,0-79.393,23.174-98.223,60.478C1426.968,1075.394,1425.686,1076.125,1424.354,1076.125z"/>
					
						<ellipse transform="matrix(0.9732 -0.2298 0.2298 0.9732 -217.8779 381.31)" style="opacity:0.78;fill:#FFFFFF;" cx="1528.512" cy="1126.283" rx="104.155" ry="104.155"/>
					<g>
						
							<linearGradient id="SVGID_00000005266526458925255430000001575864248250020524_" gradientUnits="userSpaceOnUse" x1="2085.6167" y1="-793.1812" x2="1774.488" y2="282.241">
							<stop  offset="0" style="stop-color:#FF928E"/>
							<stop  offset="1" style="stop-color:#FE7062"/>
						</linearGradient>
						<path style="fill:url(#SVGID_00000005266526458925255430000001575864248250020524_);" d="M1518.291,1203.714v-11.331
							c-11.813-0.473-23.497-3.261-31.796-6.894c-2.963-1.297-4.474-4.623-3.623-7.744l2.879-10.555
							c1.056-3.872,5.267-5.875,8.969-4.323c8.232,3.451,18.397,6.182,29.357,6.182c11.377,0,19.863-3.858,19.863-11.765
							c0-7.135-6.556-11.377-22.37-15.619c-22.562-6.172-38.761-16.007-38.761-35.87c0-17.935,13.113-31.627,35.87-35.29v-11.333
							c0-3.646,2.956-6.603,6.602-6.603h6.657c3.647,0,6.603,2.956,6.603,6.603v10.175c10.931,0.438,18.887,2.307,25.202,4.526
							c3.235,1.137,5.003,4.621,4.105,7.931l-2.647,9.762c-1.021,3.764-5.044,5.826-8.692,4.447
							c-5.814-2.198-14.034-4.487-24.718-4.487c-13.499,0-17.356,5.592-17.356,10.606c0,6.171,8.099,10.413,25.648,15.813
							c25.07,7.521,35.483,17.934,35.483,36.641c0,17.163-12.727,32.591-37.411,36.448v12.681c0,3.647-2.956,6.603-6.602,6.603
							h-6.658C1521.247,1210.316,1518.291,1207.36,1518.291,1203.714z"/>
					</g>
				</g>
			</g>
		</g>
		<g>
			<g>
				
					<linearGradient id="SVGID_00000109009395627170334140000005972828532362587778_" gradientUnits="userSpaceOnUse" x1="1747.7463" y1="-210.625" x2="1204.3984" y2="-704.3735" gradientTransform="matrix(1 0 0 1 -1278.5293 0)">
					<stop  offset="0" style="stop-color:#FEBBBA"/>
					<stop  offset="1" style="stop-color:#FF928E"/>
				</linearGradient>
				<path style="fill:url(#SVGID_00000109009395627170334140000005972828532362587778_);" d="M2347.288,1541.33
					c-1.513,4.808,16,12.128,26.312-7.535c0.361-9.424,6.092-49.798,0.461-57.475c-29.991-40.89-88.139-92.146-88.139-92.146
					c-9.828,9.697-1.731,19.223-1.731,19.223l28.208,29.385c-5.9,10.662-13.097,19.663-16.47,32.559
					c-2.555,9.766-0.992,20.204,3.941,29.093c4.952,8.92,11.707,20.516,18.094,29.591
					C2330.051,1541.201,2347.288,1541.33,2347.288,1541.33z"/>
				
					<linearGradient id="SVGID_00000147217080860453721940000000297328213701017225_" gradientUnits="userSpaceOnUse" x1="3657.6882" y1="1570.1072" x2="3583.6624" y2="1420.7791" gradientTransform="matrix(1 0 0 1 -1278.5293 0)">
					<stop  offset="0" style="stop-color:#FEBBBA"/>
					<stop  offset="1" style="stop-color:#FF928E"/>
				</linearGradient>
				<path style="fill:url(#SVGID_00000147217080860453721940000000297328213701017225_);" d="M2324.736,1451.849l25.706,21.791
					l8.071,21.696l-22.92,25.426c0,0-7.706-43.049-13.433-52.367C2316.433,1459.079,2319.403,1454.573,2324.736,1451.849z"/>
			</g>
			<g>
				
					<linearGradient id="SVGID_00000057148087110637242950000005131753239584076952_" gradientUnits="userSpaceOnUse" x1="1042.7466" y1="3095.3428" x2="415.6704" y2="3777.4263" gradientTransform="matrix(-1 0 0 1 3696.7529 0)">
					<stop  offset="0" style="stop-color:#09005D"/>
					<stop  offset="1" style="stop-color:#1A0F91"/>
				</linearGradient>
				<path style="fill:url(#SVGID_00000057148087110637242950000005131753239584076952_);" d="M2852.226,3146.154
					c0,0,6.494,36.764,9.678,73.158c1.245,14.222-9.72,26.572-23.986,27.167c-48.465,2.018-152.133,5.943-189.332,4.282
					c-5.592-0.249-9.249-5.974-7.179-11.176c1.735-4.358,5.08-7.882,9.342-9.841l171.24-78.702L2852.226,3146.154z"/>
				
					<linearGradient id="SVGID_00000083774295938485767260000015205514970900362625_" gradientUnits="userSpaceOnUse" x1="839.207" y1="3146.0017" x2="894.9069" y2="3146.0017" gradientTransform="matrix(-1 0 0 1 3696.7529 0)">
					<stop  offset="0" style="stop-color:#FEBBBA"/>
					<stop  offset="1" style="stop-color:#FF928E"/>
				</linearGradient>
				<path style="fill:url(#SVGID_00000083774295938485767260000015205514970900362625_);" d="M2857.546,3124.552l-5.218,43.975
					c0,0-29.997,13.964-50.482-1.76l12.422-49.007L2857.546,3124.552z"/>
				
					<linearGradient id="SVGID_00000129907373665768411770000012439819669179250102_" gradientUnits="userSpaceOnUse" x1="1092.1221" y1="2323.979" x2="558.5403" y2="3047.1804" gradientTransform="matrix(-1 0 0 1 3696.7529 0)">
					<stop  offset="0" style="stop-color:#4F52FF"/>
					<stop  offset="1" style="stop-color:#4042E2"/>
				</linearGradient>
				<path style="fill:url(#SVGID_00000129907373665768411770000012439819669179250102_);" d="M2853.625,2297.804
					c2.254,11.483,12.097,573.072-47.932,824.739c-0.979,4.106,1.103,8.339,5.01,9.936c9.207,3.762,27.257,9.209,48.889,9.936
					c6.699,0.225,12.705-4.129,14.595-10.559c17.159-58.391,99.383-350.944,110.11-630.412c11.985-312.278,0-10.633,0-10.633
					l-7.03-193.031L2853.625,2297.804z"/>
				
					<linearGradient id="SVGID_00000017489281957269655780000017122075652329579419_" gradientUnits="userSpaceOnUse" x1="902.0707" y1="2966.0146" x2="274.998" y2="3648.0945" gradientTransform="matrix(-1 0 0 1 3696.7529 0)">
					<stop  offset="0" style="stop-color:#09005D"/>
					<stop  offset="1" style="stop-color:#1A0F91"/>
				</linearGradient>
				<path style="fill:url(#SVGID_00000017489281957269655780000017122075652329579419_);" d="M3049.209,3165.333
					c0,0,10.337,18.56,20.346,67.879c1.806,8.907-4.417,17.431-13.462,18.32c-16.003,1.573-40.639,3.598-60.372,3.461
					c-9.098-0.062-16.197-7.983-15.101-17.014c2.185-18.002,8.996-47.537,30.033-70.556L3049.209,3165.333z"/>
				
					<linearGradient id="SVGID_00000147935604660522651200000017353132776760553603_" gradientUnits="userSpaceOnUse" x1="638.4645" y1="3143.1458" x2="686.5565" y2="3143.1458" gradientTransform="matrix(-1 0 0 1 3696.7529 0)">
					<stop  offset="0" style="stop-color:#FEBBBA"/>
					<stop  offset="1" style="stop-color:#FF928E"/>
				</linearGradient>
				<path style="fill:url(#SVGID_00000147935604660522651200000017353132776760553603_);" d="M3058.288,3108.771l-12.192,66.501
					c0,0-12.055,8.967-35.9,2.467l5.819-71.552L3058.288,3108.771z"/>
				
					<linearGradient id="SVGID_00000080180663650767970280000013206887430307446169_" gradientUnits="userSpaceOnUse" x1="997.0251" y1="2253.8157" x2="463.4434" y2="2977.0168" gradientTransform="matrix(-1 0 0 1 3696.7529 0)">
					<stop  offset="0" style="stop-color:#4F52FF"/>
					<stop  offset="1" style="stop-color:#4042E2"/>
				</linearGradient>
				<path style="fill:url(#SVGID_00000080180663650767970280000013206887430307446169_);" d="M3091.223,2315.037
					c49.096,296.299-10.65,732.327-30.8,817.668c-1.233,5.225-5.451,9.228-10.746,10.106c-8.994,1.491-23.802,2.707-38.401-1.533
					c-5.029-1.46-8.563-5.997-8.769-11.232c-2.703-68.996,2.162-492.563-43.584-659.958c-2.318-8.484-7.498-15.882-14.667-20.978
					l-88.791-63.122l-6.807-102.032L3091.223,2315.037z"/>
				<g>
					
						<linearGradient id="SVGID_00000014617038587457362340000015809487914177510808_" gradientUnits="userSpaceOnUse" x1="3546.0186" y1="-370.6721" x2="3234.8906" y2="704.7478">
						<stop  offset="0" style="stop-color:#FF928E"/>
						<stop  offset="1" style="stop-color:#FE7062"/>
					</linearGradient>
					<path style="fill:url(#SVGID_00000014617038587457362340000015809487914177510808_);" d="M2778.382,1753.608
						c147.132-2.43,309.475,38.632,309.475,38.632c43.857,255.904,7.67,551.072,7.67,551.072
						c-113.906,29.871-242.399-18.263-242.399-18.263c-18.932-106.962-107.263-407.988-107.263-407.988
						c-71.888-8.921-131.108-29.663-179.877-57.084c37.199-43.119,54.736-97.987,62.353-130.421
						C2680.361,1745.723,2733,1754.358,2778.382,1753.608z"/>
					
						<linearGradient id="SVGID_00000129901474490181208740000007766839047574094780_" gradientUnits="userSpaceOnUse" x1="1708.4719" y1="-167.3989" x2="1165.1243" y2="-661.1472" gradientTransform="matrix(1 0 0 1 -1278.5293 0)">
						<stop  offset="0" style="stop-color:#FEBBBA"/>
						<stop  offset="1" style="stop-color:#FF928E"/>
					</linearGradient>
					<path style="fill:url(#SVGID_00000129901474490181208740000007766839047574094780_);" d="M2343.78,1536.89
						c14.454-17.456,32.746-9.199,32.746-9.199c21.652,91.46,135.18,165.617,251.814,201.865
						c-7.616,32.434-25.153,87.301-62.353,130.421C2372.422,1751.143,2343.78,1536.89,2343.78,1536.89z"/>
				</g>
				
					<linearGradient id="SVGID_00000046311166433842856680000014438706773844256394_" gradientUnits="userSpaceOnUse" x1="3795.7439" y1="-298.4257" x2="3484.6155" y2="776.9963">
					<stop  offset="0" style="stop-color:#FF928E"/>
					<stop  offset="1" style="stop-color:#FE7062"/>
				</linearGradient>
				<path style="fill:url(#SVGID_00000046311166433842856680000014438706773844256394_);" d="M3031.423,1934.707l56.434-142.467
					c0,0,137.429,93.377,160.031,211.77c-25.967,1.912-73.219,8.667-119.471,32.021
					C3118.253,1980.127,3031.423,1934.707,3031.423,1934.707z"/>
				
					<linearGradient id="SVGID_00000168812790166920862680000004219512551753742983_" gradientUnits="userSpaceOnUse" x1="722.2514" y1="1710.9474" x2="864.6283" y2="1710.9474" gradientTransform="matrix(-1 0 0 1 3696.7529 0)">
					<stop  offset="0" style="stop-color:#FEBBBA"/>
					<stop  offset="1" style="stop-color:#FF928E"/>
				</linearGradient>
				<path style="fill:url(#SVGID_00000168812790166920862680000004219512551753742983_);" d="M2927.414,1634.16l46.816,135.387
					c0.774,2.242-0.147,4.726-2.223,5.875c-12.761,7.056-58.738,27.45-114.144-7.679c-5.771-3.659-9.701-9.627-10.577-16.406
					l-15.16-117.176H2927.414z"/>
				<g>
					
						<linearGradient id="SVGID_00000127739171663166236670000000936928932053990836_" gradientUnits="userSpaceOnUse" x1="-4768.0996" y1="-1007.4205" x2="-4821.3047" y2="-1182.9027" gradientTransform="matrix(-0.746 -0.6659 -0.6659 0.746 -1429.5825 -803.1727)">
						<stop  offset="0" style="stop-color:#FEBBBA"/>
						<stop  offset="1" style="stop-color:#FF928E"/>
					</linearGradient>
					<path style="fill:url(#SVGID_00000127739171663166236670000000936928932053990836_);" d="M2825.551,1508.788
						c0,0-51.408,96.77-44.819,135.86c6.59,39.089,70.302,36.283,125.937,4.535l38.877-104.489L2825.551,1508.788z"/>
					
						<linearGradient id="SVGID_00000054955516654202995210000010848633401931937703_" gradientUnits="userSpaceOnUse" x1="-4816.1016" y1="-1313.173" x2="-4771.5957" y2="-1059.3262" gradientTransform="matrix(-0.746 -0.6659 -0.6659 0.746 -1429.5825 -803.1727)">
						<stop  offset="0" style="stop-color:#09005D"/>
						<stop  offset="1" style="stop-color:#1A0F91"/>
					</linearGradient>
					<path style="fill:url(#SVGID_00000054955516654202995210000010848633401931937703_);" d="M2904.211,1597.87
						c-2.261-1.002-3.095-3.768-1.741-5.837c4.119-6.292,11.84-19.128,14.303-30.366c0,0,9.241-5.92-23.523-13.761
						c-32.763-7.843-81.621-20.015-91.89-47.902c-10.013-27.19,16.294-95.568,58.266-41.085c1.596,2.073,4.725,2.118,6.319,0.044
						c6.881-8.956,24.97-27.543,50.084-16.274c23.502,10.545,26.148,27.766,25.826,36.448c-0.095,2.552,2.188,4.538,4.698,4.059
						c11.883-2.266,40.397-4.212,53.707,25.039c10.963,24.094,3.837,37.733-2.651,44.404c-2.104,2.161-1.182,5.72,1.702,6.602
						c7.809,2.39,17.893,9.012,16.884,27.309c-1.396,25.294-29.675,23.065-37.727,21.913c-1.321-0.189-2.649,0.264-3.542,1.252
						c-6.904,7.64-38.008,40.08-71.674,43.991c-2.915,0.338-5.174-2.541-4.22-5.315l14.57-42.351
						c0.676-1.967-0.265-4.124-2.166-4.967L2904.211,1597.87z"/>
					
						<linearGradient id="SVGID_00000120533545968502340260000016519751758935324298_" gradientUnits="userSpaceOnUse" x1="-4822.4883" y1="-1008.238" x2="-4870.3574" y2="-1166.1219" gradientTransform="matrix(-0.746 -0.6659 -0.6659 0.746 -1429.5825 -803.1727)">
						<stop  offset="0" style="stop-color:#FEBBBA"/>
						<stop  offset="1" style="stop-color:#FF928E"/>
					</linearGradient>
					<path style="fill:url(#SVGID_00000120533545968502340260000016519751758935324298_);" d="M2898.354,1603.881
						c0,0,36.602-25.114,39.277-3.965c2.674,21.148-32.961,30.633-50.611,22.749L2898.354,1603.881z"/>
				</g>
				
					<linearGradient id="SVGID_00000017517664732214538480000004121858666850658691_" gradientUnits="userSpaceOnUse" x1="-5495.646" y1="2757.8074" x2="-5611.396" y2="1926.5096" gradientTransform="matrix(-1 0 0 1 -2401.927 0)">
					<stop  offset="0" style="stop-color:#FEBBBA"/>
					<stop  offset="1" style="stop-color:#FF928E"/>
				</linearGradient>
				<path style="fill:url(#SVGID_00000017517664732214538480000004121858666850658691_);" d="M3128.417,2036.03
					c0,0,48.035,216.7,4.523,338.528c53.342,24.733,43.488,20.07,43.488,20.07s105.528-308.329,71.459-390.619
					C3180.718,1996.884,3147.399,2014.932,3128.417,2036.03z"/>
				
					<linearGradient id="SVGID_00000100364685809981266960000014024839596299483035_" gradientUnits="userSpaceOnUse" x1="-5509.4292" y1="2677.8401" x2="-5601.7979" y2="2014.4629" gradientTransform="matrix(-1 0 0 1 -2401.927 0)">
					<stop  offset="0" style="stop-color:#FEBBBA"/>
					<stop  offset="1" style="stop-color:#FF928E"/>
				</linearGradient>
				<path style="fill:url(#SVGID_00000100364685809981266960000014024839596299483035_);" d="M3132.94,2374.558
					c0,0-27.488,35.577-25.289,49.746c2.198,14.171,2.724,19.944,2.724,19.944s13.812-9.447,12.942-21.518
					c-1.92,38.312-14.743,81.872-3.083,79.774c11.659-2.1,72.014-57.731,58.368-117.036
					C3147.637,2363.95,3138.958,2366.29,3132.94,2374.558z"/>
			</g>
		</g>
	</g>
</g>
</svg>
